<svg width="42" height="42" viewBox="0 0 42 42" fill="none" xmlns="http://www.w3.org/2000/svg">
<circle cx="21" cy="21" r="21" fill="black"/>
<path d="M18 12V10H24V12H18ZM20 23H22V17H20V23ZM21 31C19.7667 31 18.6042 30.7625 17.5125 30.2875C16.4208 29.8125 15.4667 29.1667 14.65 28.35C13.8333 27.5333 13.1875 26.5792 12.7125 25.4875C12.2375 24.3958 12 23.2333 12 22C12 20.7667 12.2375 19.6042 12.7125 18.5125C13.1875 17.4208 13.8333 16.4667 14.65 15.65C15.4667 14.8333 16.4208 14.1875 17.5125 13.7125C18.6042 13.2375 19.7667 13 21 13C22.0333 13 23.025 13.1667 23.975 13.5C24.925 13.8333 25.8167 14.3167 26.65 14.95L28.05 13.55L29.45 14.95L28.05 16.35C28.6833 17.1833 29.1667 18.075 29.5 19.025C29.8333 19.975 30 20.9667 30 22C30 23.2333 29.7625 24.3958 29.2875 25.4875C28.8125 26.5792 28.1667 27.5333 27.35 28.35C26.5333 29.1667 25.5792 29.8125 24.4875 30.2875C23.3958 30.7625 22.2333 31 21 31ZM21 29C22.9333 29 24.5833 28.3167 25.95 26.95C27.3167 25.5833 28 23.9333 28 22C28 20.0667 27.3167 18.4167 25.95 17.05C24.5833 15.6833 22.9333 15 21 15C19.0667 15 17.4167 15.6833 16.05 17.05C14.6833 18.4167 14 20.0667 14 22C14 23.9333 14.6833 25.5833 16.05 26.95C17.4167 28.3167 19.0667 29 21 29Z" fill="white"/>
</svg>
